<?xml version="1.0" encoding="utf-8"?>
<!-- Generator: Adobe Illustrator 28.0.0, SVG Export Plug-In . SVG Version: 6.00 Build 0)  -->
<svg version="1.1" id="Layer_1" xmlns="http://www.w3.org/2000/svg" xmlns:xlink="http://www.w3.org/1999/xlink" x="0px" y="0px"
	 viewBox="0 0 370 370" style="enable-background:new 0 0 370 370;" xml:space="preserve">
<style type="text/css">
	.st0{fill:#401E19;}
	.st1{fill:#F5A746;}
	.st2{fill:#ED8922;}
	.st3{fill:#FACC89;}
	.st4{fill:#7AB43B;}
	.st5{fill:#AEDB6E;}
	.st6{fill:#985936;}
</style>
<path class="st0" d="M181.82,286.12c-43.59,0-87.19-0.05-130.78,0.04c-8.59,0.02-16.24-2.05-22.14-8.57
	c-4.09-4.53-7.02-9.72-7.23-16.05c-0.06-1.86-0.57-2.98-2.49-3.88c-10.15-4.76-14.85-16.07-11.7-27.76
	c4.71-17.46,10.21-34.63,19.82-50.15c0.99-1.6,0.35-2.95,0.09-4.37c-1.89-10.2,1.09-18.76,8.61-25.77c3.79-3.53,8.39-5.3,13.53-5.65
	c4.38-0.3,5.79-1.92,5.37-6.22c-1.14-11.78,6.06-21.42,17.56-23.52c1.91-0.35,3.82-0.33,5.74-0.11c5.36,0.61,6.83-0.44,7.92-5.76
	c2.34-11.42,9.56-18.16,20.63-20.65c6.53-1.46,13.02-0.55,18.81,3.22c1.31,0.85,2.48,1.21,3.98,0.56c2.69-1.16,5.59-1.51,8.46-1.4
	c2.57,0.1,4.01-1.02,5.28-3.08c3.63-5.87,8.76-9.91,15.52-11.54c8.32-2.01,15.53,0.42,21.81,5.99c1.29,1.15,2.45,2.44,3.71,3.62
	c3.53,3.33,7.35,3.43,11.03,0.26c1.82-1.56,3.48-3.33,5.39-4.76c10.4-7.82,24.67-5.22,31.66,5.69c3.16,4.94,5.91,5.58,11.01,2.6
	c12.62-7.38,26.15-2.92,31.88,10.51c0.26,0.62,0.49,1.25,0.75,1.87c2.38,5.46,4.25,6.61,10.07,5.32
	c16.52-3.66,29.25,10.14,27.99,23.35c-0.4,4.16,1.13,6.42,4.81,7.51c17.53,5.18,24.08,23.96,18.65,38.88
	c-0.87,2.39-0.45,4.15,0.79,6.31c7.69,13.4,12.6,27.89,16.56,42.75c1.51,5.68,3.29,11.26,1.65,17.22
	c-2.03,7.37-6.2,12.93-13.57,15.59c-1.48,0.53-1.44,1.39-1.57,2.57c-0.99,9.45-5.09,17.05-13.59,21.76
	c-4.61,2.56-9.66,3.55-14.98,3.54c-43.69-0.05-87.38-0.03-131.07-0.03C181.82,286.05,181.82,286.09,181.82,286.12z M285.68,133.19
	c-7.61-14.48-27.33-16.97-35.64-10.25c3.71,1.85,7.38,3.67,11.04,5.49c9.84,6.59,19.42,13.51,28.49,21.96
	C289.87,143.76,288.87,138.21,285.68,133.19z M151.31,104.7c-4.46-4.17-9.86-4.73-15.54-3.91c-10.11,1.46-18.54,10.35-18.66,19.61
	c1.06-0.13,1.99-0.49,2.76-1.24c0.36-0.03,0.76,0.04,1.08-0.09c7.91-3.16,15.92-5.97,24.26-7.76c3.49-0.75,6.96-1.54,10.81-2.39
	C154.32,107.24,153.31,105.44,151.31,104.7z M22.87,247.68c0.21-0.63,0.5-1.24,0.62-1.89c2.74-15.54,7.07-30.61,13.77-44.9
	c1.83-3.89,2.7-6.6-1.22-9.69c-2.67-2.11-2.26-2.49-3.96,0.66c-5.85,10.81-9.31,22.58-13.71,33.98c-0.83-0.75-1.43-1.49-0.64-2.69
	c1.14-1.75,0.41-3.74,0.52-5.61c0.03-0.59-0.28-1.15-0.93-1.28c-0.7-0.14-1.07,0.36-1.23,0.93c-0.23,0.77-0.5,1.54-1.4,1.62
	c-3.38,0.28-3.94,2.72-3.82,5.32c0.23,5.05-0.79,9.97-1.26,14.95c-0.17,1.83-0.89,4.31-0.01,5.4c2.55,3.18,3.13,7.62,7.62,9.71
	c4.79,2.23,6.01,7.58,7.47,12.39c1.01,3.32,1.97,6.8,5.44,8.6c0.57,0.3,1.37,1.21,1.92,0.06c0.85-1.79,1.79-3.51,0.01-5.5
	c-2.11-2.37-2.52-5.66-3.77-8.5c-0.59-1.35-0.72-3.3,1.14-4.87c0.89-0.75,2.16-3.28,0.03-4.76c-1.97-1.36-1.74-2.69-0.4-4.27
	c2.25-2.64,1.21-5.59,1.18-8.92c-1.67,1.41-0.17,4.04-1.8,4.04c-3.43,0-3.95,2.04-4.38,4.57C23.95,247.52,23.36,247.63,22.87,247.68
	z M304.68,166.5c4.39,6.28,9.19,12.28,12.9,19.02c0.73,1.32,1.35,0.92,2.17,0.14c6.06-5.74,9.75-12.48,9.2-21.13
	c-0.47-7.38-5.21-14.12-11.66-16.35c-7.09-2.2-12.09-6.46-13.45-14.06c-0.4-2.24-0.31-4.58-0.32-6.87
	c-0.02-7.14-9.9-13.27-16.44-9.33c0.08,0.17,0.12,0.37,0.24,0.49c11.02,11.06,15.44,23.93,10.81,39.29
	c-0.23,0.78-0.37,1.42,0.28,2.1C300.54,162.01,302.6,164.26,304.68,166.5z M162.33,100.21c0.14,0.37,0.35,0.6,0.78,0.41l0.2-0.08
	c0.79,2.74,3.24,4.41,4.49,6.86c0.44,0.86,1.32,0.47,2.08,0.42c22.48-1.34,44.43,1.18,65.63,9.09c1.8,0.67,3.18,0.7,4.75-0.58
	c2.16-1.76,4.67-2.98,7.22-4.14c6.65-3,13.6-3.5,20.99-2.54c-1.6-3.31-2.61-6.51-4.62-9.25c-2.81-3.83-7.46-5.34-11.99-3.84
	c-1.66,0.55-3.13,1.44-4.62,2.31c-7.76,4.54-17.31,2.64-21.77-4.24c-0.5-0.77-0.98-1.74-2.22-1.44c0.38-1.12-0.4-1.79-1-2.51
	c-3.7-4.43-9.1-5.29-14.16-2.01c-2.15,1.4-3.98,3.28-5.94,4.96c-7.88,6.74-17.29,6.52-24.84-0.58c-1.81-1.7-3.52-3.55-5.48-5.06
	c-6.02-4.64-14.79-3.05-18.96,3.27c-0.68,1.03-1.04,1.75,0.42,2.41C156.75,95.21,159.47,97.81,162.33,100.21z M109.22,109.33
	c1.7-4.09,4.48-7.47,7.38-10.83c-8.37-3.22-18.67,2.82-20.38,11.76c-2.12,11.07-7.95,15.45-18.99,14.31
	c-6.88-0.72-12.45,4.35-12.31,11.19c0.03,1.63,0.16,3.26,0.19,4.89c0.16,8.03-4.6,13.53-12.68,13.63
	c-9.42,0.11-17.82,9.42-14.42,20.73c0.95,3.5,2.92,6.41,5.21,9.16c1.29,1.54,2.01,1.42,3.09-0.36c5.92-9.79,12.9-18.78,20.7-27.15
	C78.07,144.78,90.77,135,104.87,127c0.97-0.55,2.05-0.91,1.88-2.5C106.18,119.23,107.59,114.26,109.22,109.33z M46.52,275.83
	c1.63-0.01,3.25-0.04,4.88-0.04c87.29,0.01,174.58,0.04,261.87,0.03c11.53,0,19.52-8.77,17.81-20.13
	c-3.1-20.5-8.54-40.27-18.69-58.61c-19.32-34.9-47.19-59.57-85.3-72.15c-7.36-2.43-14.82-4.61-22.63-5.16
	c-3.34-0.66-6.66-1.44-10.11-1.2c-0.76-0.52-1.65-0.43-2.51-0.5c-26.98-2.12-52.52,3.26-76.58,15.38
	c-25.77,12.98-45.72,32.31-60.92,56.75c-8.27,13.31-13.59,27.86-18,42.72c-2.25,7.58-3.38,15.51-4.23,23.46
	c-0.62,5.8,1.22,10.07,4.83,14.23C39.56,273.63,42.97,274.75,46.52,275.83z M240.98,284.57c21.03,0,42.06-0.02,63.1,0.04
	c1.85,0,3.61-0.37,5.39-0.67c1.69-0.29,2.14-1.31,0.79-2.57c-0.63-0.59-1.03-1.05-0.67-1.94c0.55-1.36,0.13-1.58-1.31-1.37
	c-2.36,0.34-4.72,0.14-7.13-0.22c-2.91-0.43-6.14-0.95-8.83,0.19c-4.44,1.88-9.18,1.66-13.36,0.99c-4.98-0.81-10.02-1.14-14.88-1.16
	c-26.77-0.1-53.55-0.83-80.31,0.37c-3.63,0.16-7.23-1.05-10.87-0.54c-4.67,0.65-9.31,0.13-13.97,0.09
	c-18.4-0.16-36.8-0.42-55.19,0.4c-2.87,0.13-5.72,1.25-8.55,0.53c-3.39-0.86-6.88-0.75-10.25-0.89
	c-10.16-0.42-20.35-0.15-30.53-0.15c-0.76,0-1.74-0.2-2.17,0.48c-1.17,1.85-2.9,1.79-4.75,1.9c-1.88,0.12-4.06,1.05-3.99,2.95
	c0.08,2.12,2.47,1.46,4.02,1.57c0.38,0.03,0.77,0.01,1.15,0c39.73-0.25,79.47,0.6,119.2-0.6c4.61-0.14,9.14,0.68,13.76,0.65
	C201.41,284.5,221.19,284.57,240.98,284.57z M346.85,236.37c-0.28-3.67-1.71-7.96-2.96-12.27c-3.19-11.06-6.95-21.9-12-32.28
	c-0.99-2.03-1.8-2.14-3.25-0.55c-1.1,1.2-2.29,2.33-3.55,3.37c-1.33,1.11-1.46,2.17-0.69,3.75c7.42,15.16,12.43,31.11,15.45,47.69
	c0.32,1.76,0.88,1.95,2.18,0.86C345.06,244.41,346.84,241.27,346.85,236.37z"/>
<path class="st1" d="M194.35,118.58c3.44-0.24,6.77,0.54,10.1,1.2c0.01,1.51,1.31,1.76,2.29,2.26c6.57,3.37,12.9,7.19,18.95,11.37
	c13.13,9.06,24.81,19.78,35.46,31.7c11.28,12.63,20,26.85,27.26,42.02c3.06,6.4,5.02,13.07,4.91,20.44
	c-0.23,15.3-12.39,28.34-28.39,28.22c-14.7-0.11-29.39-0.03-44.09-0.03c-57.92-0.01-115.84-0.02-173.76-0.03
	c0.01-0.38-0.02-0.78,0.05-1.15c3.73-20.01,11.36-38.51,22.05-55.75c5.4-8.71,11.52-16.88,18.48-24.47
	c6.35-6.93,13.15-13.33,20.28-19.4c6.27-5.34,13.2-9.81,20.29-13.98c8.06-4.73,16.38-8.98,25.17-12.22
	c7.88-2.91,15.84-5.59,24.06-7.36C183.04,120.2,188.49,118.11,194.35,118.58z M124.54,175.01c-7.27-0.04-13.22,5.86-13.17,13.07
	c0.05,7.29,6,13.35,13.08,13.3c7.32-0.05,13.41-6.14,13.39-13.37C137.82,180.84,131.9,175.05,124.54,175.01z M259.53,239.63
	c7.41,0.01,13.09-5.54,13.08-12.76c0-7.28-6.04-13.51-13-13.41c-7.07,0.09-13.04,6.31-12.95,13.49
	C246.76,234.14,252.31,239.62,259.53,239.63z M86.47,223.2c-6.17-0.05-11.57,5.31-11.63,11.55c-0.06,6.25,5.26,11.69,11.44,11.72
	c6.24,0.03,11.66-5.23,11.77-11.44C98.17,228.52,93.02,223.25,86.47,223.2z M192.32,171.22c4.15-0.07,7.37-3.25,7.37-7.27
	c0-4.15-3.32-7.34-7.61-7.31c-3.96,0.03-7.21,3.22-7.2,7.05C184.9,167.88,188.27,171.29,192.32,171.22z"/>
<path class="st2" d="M47.08,255.74c57.92,0.01,115.84,0.02,173.76,0.03c14.7,0,29.39-0.08,44.09,0.03
	c16,0.12,28.16-12.92,28.39-28.22c0.11-7.37-1.85-14.04-4.91-20.44c-7.26-15.17-15.98-29.39-27.26-42.02
	c-10.65-11.92-22.33-22.64-35.46-31.7c-6.05-4.18-12.38-8-18.95-11.37c-0.98-0.5-2.28-0.75-2.29-2.26
	c7.81,0.55,15.27,2.73,22.63,5.16c38.11,12.58,65.98,37.25,85.3,72.15c10.15,18.34,15.59,38.11,18.69,58.61
	c1.72,11.36-6.27,20.12-17.81,20.13c-87.29,0-174.58-0.02-261.87-0.03c-1.63,0-3.25,0.02-4.88,0.04c0.07-1.15-0.18-2.27-0.31-3.4
	C45.58,266.82,45.5,261.23,47.08,255.74z"/>
<path class="st3" d="M47.08,255.74c-1.58,5.49-1.49,11.09-0.86,16.68c0.13,1.14,0.38,2.25,0.31,3.4c-3.55-1.07-6.96-2.19-9.58-5.21
	c-3.61-4.16-5.45-8.43-4.83-14.23c0.85-7.95,1.98-15.88,4.23-23.46c4.41-14.86,9.72-29.41,18-42.72
	c15.2-24.44,35.15-43.77,60.92-56.75c24.07-12.13,49.6-17.5,76.58-15.38c0.85,0.07,1.74-0.02,2.51,0.5
	c-5.86-0.46-11.31,1.63-16.89,2.82c-8.22,1.77-16.18,4.45-24.06,7.36c-8.8,3.25-17.11,7.49-25.17,12.22
	c-7.1,4.17-14.03,8.64-20.29,13.98c-7.12,6.07-13.92,12.47-20.28,19.4c-6.97,7.6-13.08,15.76-18.48,24.47
	c-10.69,17.24-18.32,35.74-22.05,55.75C47.06,254.96,47.09,255.35,47.08,255.74z"/>
<path class="st0" d="M240.98,284.57c-19.78,0-39.57-0.07-59.35,0.05c-4.61,0.03-9.14-0.79-13.76-0.65
	c-39.73,1.2-79.47,0.35-119.2,0.6c-0.38,0-0.77,0.02-1.15,0c-1.55-0.11-3.93,0.56-4.02-1.57c-0.08-1.9,2.11-2.83,3.99-2.95
	c1.85-0.12,3.58-0.06,4.75-1.9c0.43-0.68,1.4-0.48,2.17-0.48c10.18,0,20.37-0.27,30.53,0.15c3.37,0.14,6.86,0.03,10.25,0.89
	c2.83,0.72,5.69-0.4,8.55-0.53c18.4-0.81,36.8-0.56,55.19-0.4c4.66,0.04,9.3,0.57,13.97-0.09c3.64-0.51,7.24,0.7,10.87,0.54
	c26.76-1.2,53.54-0.47,80.31-0.37c4.86,0.02,9.9,0.35,14.88,1.16c4.18,0.68,8.92,0.9,13.36-0.99c2.68-1.14,5.92-0.62,8.83-0.19
	c2.41,0.36,4.77,0.56,7.13,0.22c1.45-0.21,1.86,0.01,1.31,1.37c-0.36,0.89,0.04,1.35,0.67,1.94c1.35,1.27,0.9,2.28-0.79,2.57
	c-1.78,0.31-3.54,0.68-5.39,0.67C283.04,284.55,262.01,284.57,240.98,284.57z"/>
<path class="st4" d="M223.25,93.2c1.24-0.3,1.73,0.68,2.22,1.44c4.46,6.87,14.01,8.78,21.77,4.24c1.49-0.87,2.96-1.76,4.62-2.31
	c4.53-1.5,9.18,0.01,11.99,3.84c2.01,2.74,3.02,5.94,4.62,9.25c-7.39-0.96-14.35-0.46-20.99,2.54c-2.55,1.15-5.06,2.38-7.22,4.14
	c-1.57,1.28-2.95,1.25-4.75,0.58c-21.19-7.91-43.15-10.43-65.63-9.09c-0.76,0.05-1.64,0.44-2.08-0.42c-1.25-2.46-3.7-4.12-4.49-6.86
	c0.46-0.12,0.91-0.34,1.38-0.35c9.87-0.34,19.63,0.93,29.42,1.96c6.58,0.69,13.08,1.14,19.07-3.04
	C216.33,96.9,219.46,94.43,223.25,93.2z"/>
<path class="st4" d="M109.22,109.33c-1.64,4.93-3.05,9.9-2.48,15.17c0.17,1.59-0.9,1.94-1.88,2.5c-14.1,8-26.8,17.78-37.86,29.66
	c-7.79,8.37-14.78,17.36-20.7,27.15c-1.08,1.79-1.8,1.91-3.09,0.36c-2.29-2.75-4.26-5.66-5.21-9.16c3.68-4.92,7.79-9.43,13.14-12.58
	c5.06-2.98,8.8-7.31,12.43-11.76c7.28-8.95,15.16-17.29,25.15-23.24c7.26-4.33,13.54-9.56,18.08-16.76
	C107.27,109.93,107.78,108.6,109.22,109.33z"/>
<path class="st5" d="M109.22,109.33c-1.45-0.73-1.95,0.6-2.42,1.34c-4.54,7.21-10.81,12.43-18.08,16.76
	c-9.99,5.95-17.87,14.29-25.15,23.24c-3.62,4.45-7.37,8.78-12.43,11.76c-5.34,3.15-9.46,7.65-13.14,12.58
	c-3.4-11.31,5.01-20.62,14.42-20.73c8.08-0.1,12.84-5.6,12.68-13.63c-0.03-1.63-0.15-3.26-0.19-4.89
	c-0.15-6.85,5.43-11.91,12.31-11.19c11.04,1.15,16.86-3.24,18.99-14.31c1.71-8.93,12.01-14.98,20.38-11.76
	C113.7,101.86,110.92,105.24,109.22,109.33z"/>
<path class="st5" d="M223.25,93.2c-3.78,1.23-6.92,3.7-10.07,5.9c-5.99,4.18-12.49,3.74-19.07,3.04c-9.79-1.03-19.55-2.3-29.42-1.96
	c-0.46,0.02-0.92,0.23-1.38,0.35c0,0-0.21,0.08-0.21,0.08c-0.26-0.14-0.52-0.28-0.78-0.41c-2.85-2.4-5.58-4.99-9.04-6.54
	c-1.46-0.65-1.1-1.37-0.42-2.41c4.17-6.32,12.94-7.91,18.96-3.27c1.96,1.51,3.67,3.36,5.48,5.06c7.55,7.1,16.97,7.32,24.84,0.58
	c1.96-1.68,3.79-3.56,5.94-4.96c5.06-3.29,10.46-2.42,14.16,2.01C222.85,91.41,223.63,92.08,223.25,93.2z"/>
<path class="st4" d="M317.3,148.18c6.45,2.22,11.19,8.96,11.66,16.35c0.55,8.64-3.14,15.39-9.2,21.13
	c-0.83,0.78-1.45,1.18-2.17-0.14c-3.71-6.74-8.51-12.74-12.9-19.02c0.2-0.32,0.33-0.72,0.6-0.96c4.86-4.33,8.5-9.45,10.24-15.78
	C315.81,148.69,316.62,148.6,317.3,148.18z"/>
<path class="st6" d="M346.85,236.37c0,4.9-1.79,8.04-4.82,10.57c-1.3,1.08-1.86,0.9-2.18-0.86c-3.01-16.58-8.03-32.53-15.45-47.69
	c-0.77-1.57-0.64-2.64,0.69-3.75c1.25-1.04,2.45-2.17,3.55-3.37c1.45-1.59,2.26-1.48,3.25,0.55c5.05,10.38,8.81,21.22,12,32.28
	C345.13,228.41,346.57,232.7,346.85,236.37z"/>
<path class="st5" d="M317.3,148.18c-0.68,0.42-1.49,0.51-1.78,1.59c-1.74,6.33-5.38,11.45-10.24,15.78c-0.27,0.24-0.4,0.63-0.6,0.96
	c-2.08-2.24-4.15-4.49-6.26-6.7c-0.65-0.68-0.51-1.32-0.28-2.1c4.63-15.36,0.22-28.23-10.81-39.29c-0.12-0.12-0.16-0.33-0.24-0.5
	c6.54-3.94,16.42,2.19,16.43,9.33c0.01,2.29-0.08,4.63,0.32,6.87C305.21,141.72,310.21,145.98,317.3,148.18z"/>
<path class="st6" d="M18.36,225.84c4.4-11.39,7.86-23.16,13.71-33.98c1.71-3.15,1.29-2.77,3.96-0.66c3.93,3.09,3.05,5.81,1.22,9.69
	c-6.71,14.28-11.03,29.36-13.77,44.9c-0.11,0.65-0.41,1.26-0.62,1.89c-0.15-0.04-0.31-0.04-0.46-0.02
	c-4.12-3.27-6.32-7.41-5.81-12.79c0.26-2.7,1.68-5.16,1.65-7.92C18.29,226.58,18.32,226.21,18.36,225.84z"/>
<path class="st0" d="M18.36,225.84c-0.04,0.37-0.08,0.74-0.11,1.11c-2.58,0.34-4.76,1.76-5.26,4.13c-0.3,1.44-1.17,4.42,2.3,4.67
	c0.75,0.05,0.36,0.9,0.24,1.43c-0.54,2.42-0.77,4.77,1.45,6.6c0.28,0.23,0.57,0.62,0.6,0.95c0.3,3.17,2.2,3.62,4.82,2.92
	c0.15-0.03,0.31-0.02,0.46,0.02c0.49-0.05,1.08-0.16,1.17-0.67c0.43-2.52,0.95-4.57,4.38-4.57c1.63,0,0.13-2.63,1.8-4.04
	c0.03,3.34,1.07,6.28-1.18,8.92c-1.34,1.58-1.56,2.91,0.4,4.27c2.13,1.48,0.86,4.01-0.03,4.76c-1.86,1.57-1.74,3.52-1.14,4.87
	c1.25,2.84,1.66,6.13,3.77,8.5c1.78,2,0.83,3.72-0.01,5.5c-0.54,1.15-1.34,0.24-1.92-0.06c-3.47-1.8-4.43-5.28-5.44-8.6
	c-1.46-4.81-2.68-10.16-7.47-12.39c-4.5-2.1-5.07-6.54-7.62-9.71c-0.88-1.1-0.16-3.57,0.01-5.4c0.47-4.98,1.49-9.89,1.26-14.95
	c-0.12-2.6,0.45-5.04,3.82-5.32c0.9-0.08,1.17-0.84,1.4-1.62c0.17-0.57,0.53-1.08,1.23-0.93c0.65,0.13,0.96,0.69,0.93,1.28
	c-0.1,1.88,0.62,3.87-0.52,5.61C16.93,224.35,17.53,225.09,18.36,225.84z"/>
<path class="st1" d="M119.88,119.17c-0.77,0.75-1.7,1.11-2.76,1.24c0.12-9.26,8.55-18.15,18.66-19.61
	c5.68-0.82,11.08-0.26,15.54,3.91c-1.13,0.11-2.31,0.05-3.39,0.37c-6.42,1.88-12.66,4.33-18.48,7.61
	C126.11,114.56,122.27,115.85,119.88,119.17z"/>
<path class="st1" d="M261.09,128.43c-3.67-1.82-7.33-3.65-11.04-5.49c8.3-6.72,28.03-4.22,35.64,10.25
	c-2.27,0.02-4.35-0.92-6.53-1.33C273.12,130.74,267.29,128.64,261.09,128.43z"/>
<path class="st2" d="M261.09,128.43c6.2,0.21,12.03,2.31,18.06,3.43c2.18,0.41,4.26,1.35,6.53,1.33c3.19,5.03,4.19,10.57,3.9,17.2
	C280.51,141.94,270.93,135.02,261.09,128.43z"/>
<path class="st2" d="M119.88,119.17c2.39-3.32,6.24-4.61,9.57-6.49c5.82-3.28,12.05-5.73,18.48-7.61c1.07-0.31,2.26-0.26,3.39-0.37
	c2,0.74,3.01,2.54,4.73,4.23c-3.85,0.85-7.33,1.65-10.81,2.39c-8.34,1.79-16.36,4.6-24.26,7.76
	C120.64,119.21,120.24,119.15,119.88,119.17z"/>
<path class="st4" d="M162.33,100.21c0.26,0.14,0.52,0.27,0.78,0.41C162.67,100.81,162.46,100.57,162.33,100.21z"/>
<path class="st0" d="M124.54,175.01c7.36,0.04,13.28,5.83,13.3,13c0.02,7.23-6.08,13.31-13.39,13.37c-7.07,0.05-13.03-6-13.08-13.3
	C111.33,180.87,117.27,174.96,124.54,175.01z M124.81,184.78c-1.9,0.14-3.22,1.14-3.39,3.29c-0.17,2.13,1.08,3.28,3.02,3.37
	c2.05,0.1,3.43-0.88,3.45-3.21C127.91,186.22,127.14,184.95,124.81,184.78z"/>
<path class="st0" d="M259.53,239.63c-7.22-0.01-12.77-5.48-12.86-12.69c-0.09-7.17,5.88-13.4,12.95-13.49
	c6.96-0.09,12.99,6.14,13,13.41C272.62,234.09,266.94,239.63,259.53,239.63z M259.74,223.36c-1.98,0.09-3.35,1.09-3.33,3.11
	c0.03,1.84,0.97,3.38,3.13,3.37c2.11-0.01,3.05-1.33,3.12-3.32C262.72,224.56,261.74,223.51,259.74,223.36z"/>
<path class="st0" d="M86.47,223.2c6.55,0.06,11.7,5.32,11.58,11.82c-0.12,6.21-5.53,11.47-11.77,11.44
	c-6.19-0.03-11.5-5.47-11.44-11.72C74.89,228.51,80.3,223.14,86.47,223.2z M86.66,232.78c-0.86,0.11-1.5,0.56-1.53,1.6
	c-0.03,0.99,0.43,1.69,1.48,1.68c0.97-0.01,1.65-0.62,1.73-1.56C88.43,233.5,87.68,233.03,86.66,232.78z"/>
<path class="st0" d="M192.32,171.22c-4.06,0.07-7.42-3.33-7.44-7.52c-0.01-3.83,3.24-7.02,7.2-7.05c4.29-0.03,7.62,3.16,7.61,7.31
	C199.69,167.97,196.47,171.14,192.32,171.22z"/>
<path class="st0" d="M22.41,247.66c-2.62,0.69-4.52,0.25-4.82-2.92c-0.03-0.34-0.32-0.72-0.6-0.95c-2.22-1.83-1.99-4.18-1.45-6.6
	c0.12-0.54,0.51-1.38-0.24-1.43c-3.47-0.25-2.6-3.24-2.3-4.67c0.5-2.37,2.67-3.79,5.26-4.13c0.03,2.76-1.39,5.22-1.65,7.92
	C16.08,240.25,18.28,244.39,22.41,247.66z"/>
<path class="st6" d="M124.81,184.78c2.34,0.16,3.11,1.43,3.09,3.45c-0.02,2.33-1.4,3.31-3.45,3.21c-1.94-0.1-3.19-1.24-3.02-3.37
	C121.59,185.92,122.91,184.92,124.81,184.78z"/>
<path class="st6" d="M259.74,223.36c2,0.15,2.98,1.2,2.92,3.16c-0.07,2-1.01,3.32-3.12,3.32c-2.16,0.01-3.1-1.53-3.13-3.37
	C256.39,224.45,257.77,223.46,259.74,223.36z"/>
<path class="st6" d="M86.66,232.78c1.02,0.24,1.77,0.71,1.68,1.72c-0.08,0.94-0.77,1.55-1.73,1.56c-1.05,0.01-1.51-0.69-1.48-1.68
	C85.15,233.34,85.79,232.9,86.66,232.78z"/>
</svg>
